<svg xmlns="http://www.w3.org/2000/svg" viewBox="0 0 500 500"><path fill="#ef457a" d="M455.211,467.482a9.826,9.826,0,0,1-9.83,9.672H297.34a9.818,9.818,0,0,1-9.821-9.672c-.58-34.691-2.693-76.783,13.517-109.636,4.954-10.036,13.555-18.136,22.432-24.349a132.308,132.308,0,0,1,25.9-13.841,8.27,8.27,0,0,0,5.2-7.726V288.967H388.15V311.93a8.27,8.27,0,0,0,5.2,7.726,132.459,132.459,0,0,1,25.913,13.831c8.876,6.223,17.478,14.323,22.432,24.359C457.9,390.7,455.791,432.791,455.211,467.482Z"/><path fill="#ff8dc6" d="M413.97,114s-2.143-72.068-62.821-91.2c-42.243-13.321-75.727,14.9-90.555,30.857a11.311,11.311,0,0,1-16.6,0c-14.828-15.959-48.312-44.178-90.556-30.857C92.761,41.927,90.619,114,90.619,114S78.4,230.247,247.779,303.406a11.393,11.393,0,0,0,9.031,0C426.191,230.247,413.97,114,413.97,114Z"/><path fill="#51402c" d="M424.046,314.661l13.965-3.394c20.875-5.038,32.052-28.134,22.794-47.5a68.422,68.422,0,0,1-5.007-15.84c-4.22-22.473-16.817-79.627-38.035-94.287-26.584-18.367-46.4-7.733-46.4-7.733s-19.817-10.634-46.4,7.733c-21.218,14.66-33.814,71.814-38.034,94.287a68.422,68.422,0,0,1-5.007,15.84c-9.258,19.365,1.918,42.463,22.794,47.5l13.964,3.394A269.836,269.836,0,0,0,424.046,314.661Z"/><path fill="#eda43a" d="M232.61,328.188a50.157,50.157,0,0,1-16.338-37.1V227.946c0-20.5-5.459-40.825-16.876-57.847-11.437-17.059-28.873-33.279-52.865-29.922a98.978,98.978,0,0,1-11.909.933,99.01,99.01,0,0,1-11.909-.933C98.722,136.82,81.285,153.04,69.848,170.1c-11.416,17.022-16.875,37.348-16.875,57.847v63.137a50.157,50.157,0,0,1-16.338,37.1,36.405,36.405,0,0,0,.026,53.88,46.3,46.3,0,0,1,12.023,17.907,36.426,36.426,0,1,0,66.645-29.193h38.586a36.426,36.426,0,1,0,66.646,29.193,46.285,46.285,0,0,1,12.023-17.907,36.405,36.405,0,0,0,.026-53.88Z"/><path fill="#fcf6c8" d="M218.463,467.521a9.825,9.825,0,0,1-9.82,9.673H60.6a9.833,9.833,0,0,1-9.83-9.673c-.58-34.7-2.684-76.793,13.516-109.635,4.955-10.047,13.556-18.137,22.433-24.359A131.618,131.618,0,0,1,112.632,319.7a8.293,8.293,0,0,0,5.2-7.727V289.006h33.58v22.963a8.3,8.3,0,0,0,5.19,7.727,131.394,131.394,0,0,1,25.922,13.831c8.877,6.222,17.468,14.312,22.422,24.359C221.156,390.728,219.043,432.821,218.463,467.521Z"/><path fill="#f9b89d" d="M182.521,333.525c-7.208,14.862-25.931,42.821-47.9,42.821S93.932,348.393,86.724,333.53a131.541,131.541,0,0,1,25.908-13.836,8.288,8.288,0,0,0,5.2-7.727V289h33.58v22.963a8.284,8.284,0,0,0,5.194,7.727A131.592,131.592,0,0,1,182.521,333.525Z"/><path fill="#ffd5c0" d="M86.439,217.07v44.3c0,21.432,14.672,40.557,35.67,44.848a62.774,62.774,0,0,0,12.6,1.236q.528,0,1.049-.008c24.84-.38,44.528-21.171,44.528-46.014V217.07s-3.357-31.246-40.574-31.487C139.711,185.583,118.978,216.537,86.439,217.07Z"/><path fill="#f9b89d" d="M419.264,333.491a131.578,131.578,0,0,0-25.915-13.83,8.285,8.285,0,0,1-5.194-7.727V288.971h-33.58v22.963a8.291,8.291,0,0,1-5.2,7.727A131.49,131.49,0,0,0,323.466,333.5c6.206,12.8,20.953,22.414,38.951,24.842l2.51,6.651a6.881,6.881,0,0,0,12.876,0l2.51-6.651C398.313,355.908,413.058,346.287,419.264,333.491Z"/><path fill="#ffd5c0" d="M418.285,217.037v44.3c0,21.431-14.672,40.557-35.669,44.847a62.774,62.774,0,0,1-12.6,1.236c-.352,0-.7,0-1.049-.008-24.84-.38-44.528-21.17-44.528-46.014V217.037s3.357-31.246,40.574-31.488C365.014,185.549,385.747,216.5,418.285,217.037Z"/><path fill="#3a311e" d="M133.433 279.343c-6.272 0-12.611-2.8-18.719-8.407a6.389 6.389 0 1 1 8.64-9.415c7.2 6.6 12.883 6.639 19.62.117a6.39 6.39 0 1 1 8.889 9.181C145.994 276.5 139.748 279.343 133.433 279.343zM371.156 279.343c-6.315 0-12.561-2.842-18.43-8.524a6.39 6.39 0 1 1 8.889-9.181c6.736 6.522 12.421 6.486 19.62-.117a6.389 6.389 0 1 1 8.64 9.415C383.767 276.541 377.427 279.343 371.156 279.343z"/><path fill="#d32a67" d="M422.978 424.976v52.178H410.2V423.826a6.359 6.359 0 0 1 .423-2.3c2.035-5.279 6.881-21.056 5-30.523a6.39 6.39 0 1 1 12.534-2.5C430.813 401.885 424.807 419.933 422.978 424.976zM332.531 423.826v53.328H319.752V424.976c-1.838-5.043-7.844-23.091-5.18-36.47a6.39 6.39 0 1 1 12.533 2.5c-1.887 9.467 2.969 25.244 4.994 30.533A6.275 6.275 0 0 1 332.531 423.826z"/><path fill="#e5d17c" d="M186.23 425.016v52.178H173.451V423.855a6.372 6.372 0 0 1 .432-2.3c2.025-5.269 6.881-21.056 4.994-30.522a6.39 6.39 0 0 1 12.533-2.5C194.074 401.915 188.068 419.973 186.23 425.016zM95.783 423.855v53.339H83V425.016c-1.829-5.043-7.835-23.1-5.171-36.48a6.39 6.39 0 0 1 12.534 2.5c-1.9 9.515 2.958 25.263 4.993 30.522A6.362 6.362 0 0 1 95.783 423.855z"/><circle cx="390.874" cy="234.01" r="6.276" fill="#3a311e"/><circle cx="351.851" cy="234.01" r="6.276" fill="#3a311e"/><circle cx="152.738" cy="234.01" r="6.276" fill="#3a311e"/><circle cx="113.715" cy="234.01" r="6.276" fill="#3a311e"/></svg>